<svg xmlns="http://www.w3.org/2000/svg" viewBox="0 0 400 400" width="400" height="400">
  <rect width="400" height="400" fill="#0B0E17"/>

  <g stroke="none">
    
    <rect x="30" y="30" width="75" height="75" fill="#248297"/> <rect x="120" y="30" width="75" height="75" fill="#1C2233"/> <rect x="210" y="30" width="75" height="75" fill="#1C2233"/>
    <rect x="300" y="30" width="75" height="75" fill="#1C2233"/>

    <rect x="30" y="120" width="75" height="75" fill="#1C2233"/>
    <rect x="120" y="120" width="75" height="75" fill="#1C2233"/>
    <rect x="210" y="120" width="75" height="75" fill="#1C2233"/>
    <rect x="300" y="120" width="75" height="75" fill="#1C2233"/>

    <rect x="30" y="210" width="75" height="75" fill="#248297"/> <rect x="120" y="210" width="75" height="75" fill="#1C2233"/>
    <rect x="210" y="210" width="75" height="75" fill="#1C2233"/>
    <rect x="300" y="210" width="75" height="75" fill="#248297"/> <rect x="30" y="300" width="75" height="75" fill="#1C2233"/>
    <rect x="120" y="300" width="75" height="75" fill="#1C2233"/>
    <rect x="210" y="300" width="75" height="75" fill="#1C2233"/>
    <rect x="300" y="300" width="75" height="75" fill="#248297"/> </g>
</svg>
